<mxfile host="app.diagrams.net" modified="2023-09-28T11:15:33.568Z" agent="Mozilla/5.0 (X11; Linux x86_64; rv:109.0) Gecko/20100101 Firefox/118.0" etag="--vFZC9OP6aPTJjltPNX" version="21.7.5" type="device">
  <diagram name="Page-1" id="O36G1AEEhh4VYTw5oZlQ">
    <mxGraphModel dx="989" dy="546" grid="1" gridSize="10" guides="1" tooltips="1" connect="1" arrows="1" fold="1" page="1" pageScale="1" pageWidth="850" pageHeight="1100" math="0" shadow="0">
      <root>
        <mxCell id="0" />
        <mxCell id="1" parent="0" />
        <mxCell id="vixc3VLxinaMPa4H9xeK-1" value="Животное" style="swimlane;fontStyle=0;childLayout=stackLayout;horizontal=1;startSize=26;fillColor=#d5e8d4;horizontalStack=0;resizeParent=1;resizeParentMax=0;resizeLast=0;collapsible=1;marginBottom=0;whiteSpace=wrap;html=1;strokeColor=#82b366;" parent="1" vertex="1">
          <mxGeometry x="440" y="40" width="140" height="230" as="geometry" />
        </mxCell>
        <mxCell id="vixc3VLxinaMPa4H9xeK-21" value="&lt;u&gt;+ Номер животного&lt;/u&gt;" style="text;strokeColor=none;fillColor=none;align=left;verticalAlign=top;spacingLeft=4;spacingRight=4;overflow=hidden;rotatable=0;points=[[0,0.5],[1,0.5]];portConstraint=eastwest;whiteSpace=wrap;html=1;" parent="vixc3VLxinaMPa4H9xeK-1" vertex="1">
          <mxGeometry y="26" width="140" height="26" as="geometry" />
        </mxCell>
        <mxCell id="vixc3VLxinaMPa4H9xeK-2" value="&lt;div&gt;+ Номер вида&lt;br&gt;&lt;/div&gt;" style="text;strokeColor=none;fillColor=none;align=left;verticalAlign=top;spacingLeft=4;spacingRight=4;overflow=hidden;rotatable=0;points=[[0,0.5],[1,0.5]];portConstraint=eastwest;whiteSpace=wrap;html=1;" parent="vixc3VLxinaMPa4H9xeK-1" vertex="1">
          <mxGeometry y="52" width="140" height="26" as="geometry" />
        </mxCell>
        <mxCell id="vixc3VLxinaMPa4H9xeK-3" value="+ Имя" style="text;strokeColor=none;fillColor=none;align=left;verticalAlign=top;spacingLeft=4;spacingRight=4;overflow=hidden;rotatable=0;points=[[0,0.5],[1,0.5]];portConstraint=eastwest;whiteSpace=wrap;html=1;" parent="vixc3VLxinaMPa4H9xeK-1" vertex="1">
          <mxGeometry y="78" width="140" height="26" as="geometry" />
        </mxCell>
        <mxCell id="vixc3VLxinaMPa4H9xeK-4" value="+ Номер вольера" style="text;strokeColor=none;fillColor=none;align=left;verticalAlign=top;spacingLeft=4;spacingRight=4;overflow=hidden;rotatable=0;points=[[0,0.5],[1,0.5]];portConstraint=eastwest;whiteSpace=wrap;html=1;" parent="vixc3VLxinaMPa4H9xeK-1" vertex="1">
          <mxGeometry y="104" width="140" height="26" as="geometry" />
        </mxCell>
        <mxCell id="vixc3VLxinaMPa4H9xeK-5" value="+ Номер ветеринарной карты" style="text;strokeColor=none;fillColor=none;align=left;verticalAlign=top;spacingLeft=4;spacingRight=4;overflow=hidden;rotatable=0;points=[[0,0.5],[1,0.5]];portConstraint=eastwest;whiteSpace=wrap;html=1;" parent="vixc3VLxinaMPa4H9xeK-1" vertex="1">
          <mxGeometry y="130" width="140" height="36" as="geometry" />
        </mxCell>
        <mxCell id="vixc3VLxinaMPa4H9xeK-7" value="+ Номер рациона" style="text;strokeColor=none;fillColor=none;align=left;verticalAlign=top;spacingLeft=4;spacingRight=4;overflow=hidden;rotatable=0;points=[[0,0.5],[1,0.5]];portConstraint=eastwest;whiteSpace=wrap;html=1;" parent="vixc3VLxinaMPa4H9xeK-1" vertex="1">
          <mxGeometry y="166" width="140" height="30" as="geometry" />
        </mxCell>
        <mxCell id="vixc3VLxinaMPa4H9xeK-62" value="+ Нужно ли тёплое помещение&amp;nbsp; на зиму" style="text;strokeColor=none;fillColor=none;spacingLeft=4;spacingRight=4;overflow=hidden;rotatable=0;points=[[0,0.5],[1,0.5]];portConstraint=eastwest;fontSize=12;whiteSpace=wrap;html=1;" parent="vixc3VLxinaMPa4H9xeK-1" vertex="1">
          <mxGeometry y="196" width="140" height="34" as="geometry" />
        </mxCell>
        <mxCell id="vixc3VLxinaMPa4H9xeK-8" value="Вольер" style="swimlane;fontStyle=0;childLayout=stackLayout;horizontal=1;startSize=26;fillColor=#d5e8d4;horizontalStack=0;resizeParent=1;resizeParentMax=0;resizeLast=0;collapsible=1;marginBottom=0;whiteSpace=wrap;html=1;strokeColor=#82b366;" parent="1" vertex="1">
          <mxGeometry x="630" y="20" width="140" height="52" as="geometry" />
        </mxCell>
        <mxCell id="vixc3VLxinaMPa4H9xeK-10" value="&lt;u&gt;+ Номер вольера&lt;/u&gt;" style="text;strokeColor=none;fillColor=none;align=left;verticalAlign=top;spacingLeft=4;spacingRight=4;overflow=hidden;rotatable=0;points=[[0,0.5],[1,0.5]];portConstraint=eastwest;whiteSpace=wrap;html=1;" parent="vixc3VLxinaMPa4H9xeK-8" vertex="1">
          <mxGeometry y="26" width="140" height="26" as="geometry" />
        </mxCell>
        <mxCell id="vixc3VLxinaMPa4H9xeK-13" value="Рацион" style="swimlane;fontStyle=0;childLayout=stackLayout;horizontal=1;startSize=26;fillColor=#ffe6cc;horizontalStack=0;resizeParent=1;resizeParentMax=0;resizeLast=0;collapsible=1;marginBottom=0;whiteSpace=wrap;html=1;dashed=1;strokeColor=#d79b00;" parent="1" vertex="1">
          <mxGeometry x="250" y="30" width="140" height="206" as="geometry" />
        </mxCell>
        <mxCell id="vixc3VLxinaMPa4H9xeK-14" value="&lt;u&gt;+ Номер рациона&lt;/u&gt;" style="text;strokeColor=none;fillColor=none;align=left;verticalAlign=top;spacingLeft=4;spacingRight=4;overflow=hidden;rotatable=0;points=[[0,0.5],[1,0.5]];portConstraint=eastwest;whiteSpace=wrap;html=1;" parent="vixc3VLxinaMPa4H9xeK-13" vertex="1">
          <mxGeometry y="26" width="140" height="26" as="geometry" />
        </mxCell>
        <mxCell id="WDXE12lgf6f9ZGKmz0Ur-4" value="+ Номер животного" style="text;strokeColor=none;fillColor=none;align=left;verticalAlign=top;spacingLeft=4;spacingRight=4;overflow=hidden;rotatable=0;points=[[0,0.5],[1,0.5]];portConstraint=eastwest;whiteSpace=wrap;html=1;" vertex="1" parent="vixc3VLxinaMPa4H9xeK-13">
          <mxGeometry y="52" width="140" height="26" as="geometry" />
        </mxCell>
        <mxCell id="vixc3VLxinaMPa4H9xeK-50" value="+ Сезон" style="text;strokeColor=none;fillColor=none;align=left;verticalAlign=top;spacingLeft=4;spacingRight=4;overflow=hidden;rotatable=0;points=[[0,0.5],[1,0.5]];portConstraint=eastwest;whiteSpace=wrap;html=1;" parent="vixc3VLxinaMPa4H9xeK-13" vertex="1">
          <mxGeometry y="78" width="140" height="26" as="geometry" />
        </mxCell>
        <mxCell id="vixc3VLxinaMPa4H9xeK-52" value="+ Тип корма" style="text;strokeColor=none;fillColor=none;align=left;verticalAlign=top;spacingLeft=4;spacingRight=4;overflow=hidden;rotatable=0;points=[[0,0.5],[1,0.5]];portConstraint=eastwest;whiteSpace=wrap;html=1;" parent="vixc3VLxinaMPa4H9xeK-13" vertex="1">
          <mxGeometry y="104" width="140" height="26" as="geometry" />
        </mxCell>
        <mxCell id="vixc3VLxinaMPa4H9xeK-55" value="+ Кол-во корма в одной порции" style="text;strokeColor=none;fillColor=none;align=left;verticalAlign=top;spacingLeft=4;spacingRight=4;overflow=hidden;rotatable=0;points=[[0,0.5],[1,0.5]];portConstraint=eastwest;whiteSpace=wrap;html=1;" parent="vixc3VLxinaMPa4H9xeK-13" vertex="1">
          <mxGeometry y="130" width="140" height="36" as="geometry" />
        </mxCell>
        <mxCell id="vixc3VLxinaMPa4H9xeK-15" value="&lt;div&gt;+ Кол-во кормёжек в день&lt;/div&gt;" style="text;strokeColor=none;fillColor=none;align=left;verticalAlign=top;spacingLeft=4;spacingRight=4;overflow=hidden;rotatable=0;points=[[0,0.5],[1,0.5]];portConstraint=eastwest;whiteSpace=wrap;html=1;" parent="vixc3VLxinaMPa4H9xeK-13" vertex="1">
          <mxGeometry y="166" width="140" height="40" as="geometry" />
        </mxCell>
        <mxCell id="vixc3VLxinaMPa4H9xeK-17" value="Ветеринарная карта" style="swimlane;fontStyle=0;childLayout=stackLayout;horizontal=1;startSize=26;fillColor=#ffe6cc;horizontalStack=0;resizeParent=1;resizeParentMax=0;resizeLast=0;collapsible=1;marginBottom=0;whiteSpace=wrap;html=1;dashed=1;strokeColor=#d79b00;" parent="1" vertex="1">
          <mxGeometry x="630" y="116" width="140" height="328" as="geometry" />
        </mxCell>
        <mxCell id="vixc3VLxinaMPa4H9xeK-18" value="&lt;u&gt;+ Номер карты&lt;/u&gt;" style="text;strokeColor=none;fillColor=none;align=left;verticalAlign=top;spacingLeft=4;spacingRight=4;overflow=hidden;rotatable=0;points=[[0,0.5],[1,0.5]];portConstraint=eastwest;whiteSpace=wrap;html=1;" parent="vixc3VLxinaMPa4H9xeK-17" vertex="1">
          <mxGeometry y="26" width="140" height="26" as="geometry" />
        </mxCell>
        <mxCell id="vixc3VLxinaMPa4H9xeK-19" value="+ Пол" style="text;strokeColor=none;fillColor=none;align=left;verticalAlign=top;spacingLeft=4;spacingRight=4;overflow=hidden;rotatable=0;points=[[0,0.5],[1,0.5]];portConstraint=eastwest;whiteSpace=wrap;html=1;" parent="vixc3VLxinaMPa4H9xeK-17" vertex="1">
          <mxGeometry y="52" width="140" height="26" as="geometry" />
        </mxCell>
        <mxCell id="vixc3VLxinaMPa4H9xeK-20" value="&lt;div&gt;+ Вес&lt;/div&gt;" style="text;strokeColor=none;fillColor=none;align=left;verticalAlign=top;spacingLeft=4;spacingRight=4;overflow=hidden;rotatable=0;points=[[0,0.5],[1,0.5]];portConstraint=eastwest;whiteSpace=wrap;html=1;" parent="vixc3VLxinaMPa4H9xeK-17" vertex="1">
          <mxGeometry y="78" width="140" height="26" as="geometry" />
        </mxCell>
        <mxCell id="vixc3VLxinaMPa4H9xeK-39" value="&lt;div&gt;+ Рост в холке&lt;br&gt;&lt;/div&gt;" style="text;strokeColor=none;fillColor=none;align=left;verticalAlign=top;spacingLeft=4;spacingRight=4;overflow=hidden;rotatable=0;points=[[0,0.5],[1,0.5]];portConstraint=eastwest;whiteSpace=wrap;html=1;" parent="vixc3VLxinaMPa4H9xeK-17" vertex="1">
          <mxGeometry y="104" width="140" height="26" as="geometry" />
        </mxCell>
        <mxCell id="vixc3VLxinaMPa4H9xeK-40" value="&lt;u&gt;+ Номер истории болезни&lt;/u&gt;" style="text;strokeColor=none;fillColor=none;align=left;verticalAlign=top;spacingLeft=4;spacingRight=4;overflow=hidden;rotatable=0;points=[[0,0.5],[1,0.5]];portConstraint=eastwest;whiteSpace=wrap;html=1;" parent="vixc3VLxinaMPa4H9xeK-17" vertex="1">
          <mxGeometry y="130" width="140" height="40" as="geometry" />
        </mxCell>
        <mxCell id="vixc3VLxinaMPa4H9xeK-41" value="&lt;u&gt;+ Номер прививочного сертификата&lt;/u&gt;" style="text;strokeColor=none;fillColor=none;align=left;verticalAlign=top;spacingLeft=4;spacingRight=4;overflow=hidden;rotatable=0;points=[[0,0.5],[1,0.5]];portConstraint=eastwest;whiteSpace=wrap;html=1;" parent="vixc3VLxinaMPa4H9xeK-17" vertex="1">
          <mxGeometry y="170" width="140" height="36" as="geometry" />
        </mxCell>
        <mxCell id="vixc3VLxinaMPa4H9xeK-46" value="+ Требуется ли изоляция в стационаре" style="text;strokeColor=none;fillColor=none;align=left;verticalAlign=top;spacingLeft=4;spacingRight=4;overflow=hidden;rotatable=0;points=[[0,0.5],[1,0.5]];portConstraint=eastwest;whiteSpace=wrap;html=1;" parent="vixc3VLxinaMPa4H9xeK-17" vertex="1">
          <mxGeometry y="206" width="140" height="52" as="geometry" />
        </mxCell>
        <mxCell id="vixc3VLxinaMPa4H9xeK-47" value="+ Наличие беременности" style="text;strokeColor=none;fillColor=none;align=left;verticalAlign=top;spacingLeft=4;spacingRight=4;overflow=hidden;rotatable=0;points=[[0,0.5],[1,0.5]];portConstraint=eastwest;whiteSpace=wrap;html=1;" parent="vixc3VLxinaMPa4H9xeK-17" vertex="1">
          <mxGeometry y="258" width="140" height="40" as="geometry" />
        </mxCell>
        <mxCell id="vixc3VLxinaMPa4H9xeK-56" value="+ Прочие заметки" style="text;strokeColor=none;fillColor=none;align=left;verticalAlign=top;spacingLeft=4;spacingRight=4;overflow=hidden;rotatable=0;points=[[0,0.5],[1,0.5]];portConstraint=eastwest;whiteSpace=wrap;html=1;" parent="vixc3VLxinaMPa4H9xeK-17" vertex="1">
          <mxGeometry y="298" width="140" height="30" as="geometry" />
        </mxCell>
        <mxCell id="vixc3VLxinaMPa4H9xeK-23" value="" style="edgeStyle=entityRelationEdgeStyle;fontSize=12;html=1;endArrow=ERoneToMany;rounded=0;entryX=1.009;entryY=0.056;entryDx=0;entryDy=0;entryPerimeter=0;exitX=0.002;exitY=0.151;exitDx=0;exitDy=0;exitPerimeter=0;" parent="1" source="vixc3VLxinaMPa4H9xeK-8" target="vixc3VLxinaMPa4H9xeK-1" edge="1">
          <mxGeometry width="100" height="100" relative="1" as="geometry">
            <mxPoint x="670" y="320" as="sourcePoint" />
            <mxPoint x="770" y="220" as="targetPoint" />
          </mxGeometry>
        </mxCell>
        <mxCell id="vixc3VLxinaMPa4H9xeK-24" value="" style="edgeStyle=entityRelationEdgeStyle;fontSize=12;html=1;endArrow=ERmandOne;startArrow=ERmandOne;rounded=0;exitX=0.01;exitY=0.04;exitDx=0;exitDy=0;exitPerimeter=0;" parent="1" source="vixc3VLxinaMPa4H9xeK-17" target="vixc3VLxinaMPa4H9xeK-5" edge="1">
          <mxGeometry width="100" height="100" relative="1" as="geometry">
            <mxPoint x="680" y="185" as="sourcePoint" />
            <mxPoint x="730" y="190" as="targetPoint" />
          </mxGeometry>
        </mxCell>
        <mxCell id="vixc3VLxinaMPa4H9xeK-26" value="Вид" style="swimlane;fontStyle=0;childLayout=stackLayout;horizontal=1;startSize=26;fillColor=#d5e8d4;horizontalStack=0;resizeParent=1;resizeParentMax=0;resizeLast=0;collapsible=1;marginBottom=0;whiteSpace=wrap;html=1;strokeColor=#82b366;" parent="1" vertex="1">
          <mxGeometry x="160" y="290" width="140" height="120" as="geometry" />
        </mxCell>
        <mxCell id="WDXE12lgf6f9ZGKmz0Ur-10" value="&lt;u&gt;+ Номер вида&lt;br&gt;&lt;/u&gt;" style="text;strokeColor=none;fillColor=none;align=left;verticalAlign=top;spacingLeft=4;spacingRight=4;overflow=hidden;rotatable=0;points=[[0,0.5],[1,0.5]];portConstraint=eastwest;whiteSpace=wrap;html=1;" vertex="1" parent="vixc3VLxinaMPa4H9xeK-26">
          <mxGeometry y="26" width="140" height="26" as="geometry" />
        </mxCell>
        <mxCell id="vixc3VLxinaMPa4H9xeK-37" value="+ Наименование вида" style="text;strokeColor=none;fillColor=none;align=left;verticalAlign=top;spacingLeft=4;spacingRight=4;overflow=hidden;rotatable=0;points=[[0,0.5],[1,0.5]];portConstraint=eastwest;whiteSpace=wrap;html=1;" parent="vixc3VLxinaMPa4H9xeK-26" vertex="1">
          <mxGeometry y="52" width="140" height="26" as="geometry" />
        </mxCell>
        <mxCell id="vixc3VLxinaMPa4H9xeK-36" value="+ Хищник / травоядное / всеядное" style="text;strokeColor=none;fillColor=none;align=left;verticalAlign=top;spacingLeft=4;spacingRight=4;overflow=hidden;rotatable=0;points=[[0,0.5],[1,0.5]];portConstraint=eastwest;whiteSpace=wrap;html=1;" parent="vixc3VLxinaMPa4H9xeK-26" vertex="1">
          <mxGeometry y="78" width="140" height="42" as="geometry" />
        </mxCell>
        <mxCell id="vixc3VLxinaMPa4H9xeK-30" value="" style="edgeStyle=entityRelationEdgeStyle;fontSize=12;html=1;endArrow=ERoneToMany;rounded=0;entryX=0;entryY=0.5;entryDx=0;entryDy=0;" parent="1" source="vixc3VLxinaMPa4H9xeK-26" target="vixc3VLxinaMPa4H9xeK-62" edge="1">
          <mxGeometry width="100" height="100" relative="1" as="geometry">
            <mxPoint x="360" y="76" as="sourcePoint" />
            <mxPoint x="590" y="270" as="targetPoint" />
            <Array as="points">
              <mxPoint x="380" y="301" />
              <mxPoint x="640" y="221" />
              <mxPoint x="480" y="261" />
            </Array>
          </mxGeometry>
        </mxCell>
        <mxCell id="vixc3VLxinaMPa4H9xeK-48" value="" style="edgeStyle=entityRelationEdgeStyle;fontSize=12;html=1;endArrow=ERoneToMany;rounded=0;" parent="1" source="vixc3VLxinaMPa4H9xeK-7" target="vixc3VLxinaMPa4H9xeK-13" edge="1">
          <mxGeometry width="100" height="100" relative="1" as="geometry">
            <mxPoint x="360" y="360" as="sourcePoint" />
            <mxPoint x="460" y="260" as="targetPoint" />
          </mxGeometry>
        </mxCell>
        <mxCell id="vixc3VLxinaMPa4H9xeK-66" value="Административные решения" style="swimlane;fontStyle=0;childLayout=stackLayout;horizontal=1;startSize=26;fillColor=#dae8fc;horizontalStack=0;resizeParent=1;resizeParentMax=0;resizeLast=0;collapsible=1;marginBottom=0;whiteSpace=wrap;html=1;strokeColor=#6c8ebf;" parent="1" vertex="1">
          <mxGeometry x="1410" y="270" width="140" height="86" as="geometry" />
        </mxCell>
        <mxCell id="vixc3VLxinaMPa4H9xeK-69" value="+ Номер распоряжения" style="text;strokeColor=none;fillColor=none;align=left;verticalAlign=top;spacingLeft=4;spacingRight=4;overflow=hidden;rotatable=0;points=[[0,0.5],[1,0.5]];portConstraint=eastwest;whiteSpace=wrap;html=1;" parent="vixc3VLxinaMPa4H9xeK-66" vertex="1">
          <mxGeometry y="26" width="140" height="34" as="geometry" />
        </mxCell>
        <mxCell id="vixc3VLxinaMPa4H9xeK-67" value="+ Текст распоряжения" style="text;strokeColor=none;fillColor=none;align=left;verticalAlign=top;spacingLeft=4;spacingRight=4;overflow=hidden;rotatable=0;points=[[0,0.5],[1,0.5]];portConstraint=eastwest;whiteSpace=wrap;html=1;" parent="vixc3VLxinaMPa4H9xeK-66" vertex="1">
          <mxGeometry y="60" width="140" height="26" as="geometry" />
        </mxCell>
        <mxCell id="vixc3VLxinaMPa4H9xeK-70" value="Сотрудник" style="swimlane;fontStyle=0;childLayout=stackLayout;horizontal=1;startSize=26;fillColor=#dae8fc;horizontalStack=0;resizeParent=1;resizeParentMax=0;resizeLast=0;collapsible=1;marginBottom=0;whiteSpace=wrap;html=1;strokeColor=#6c8ebf;" parent="1" vertex="1">
          <mxGeometry x="1160" y="40" width="140" height="104" as="geometry" />
        </mxCell>
        <mxCell id="vixc3VLxinaMPa4H9xeK-71" value="&lt;u&gt;+ Номер сотрудника&lt;/u&gt;" style="text;strokeColor=none;fillColor=none;align=left;verticalAlign=top;spacingLeft=4;spacingRight=4;overflow=hidden;rotatable=0;points=[[0,0.5],[1,0.5]];portConstraint=eastwest;whiteSpace=wrap;html=1;" parent="vixc3VLxinaMPa4H9xeK-70" vertex="1">
          <mxGeometry y="26" width="140" height="26" as="geometry" />
        </mxCell>
        <mxCell id="vixc3VLxinaMPa4H9xeK-72" value="+ ФИО" style="text;strokeColor=none;fillColor=none;align=left;verticalAlign=top;spacingLeft=4;spacingRight=4;overflow=hidden;rotatable=0;points=[[0,0.5],[1,0.5]];portConstraint=eastwest;whiteSpace=wrap;html=1;" parent="vixc3VLxinaMPa4H9xeK-70" vertex="1">
          <mxGeometry y="52" width="140" height="26" as="geometry" />
        </mxCell>
        <mxCell id="vixc3VLxinaMPa4H9xeK-115" value="+ Зарплата " style="text;strokeColor=none;fillColor=none;align=left;verticalAlign=top;spacingLeft=4;spacingRight=4;overflow=hidden;rotatable=0;points=[[0,0.5],[1,0.5]];portConstraint=eastwest;whiteSpace=wrap;html=1;" parent="vixc3VLxinaMPa4H9xeK-70" vertex="1">
          <mxGeometry y="78" width="140" height="26" as="geometry" />
        </mxCell>
        <mxCell id="vixc3VLxinaMPa4H9xeK-74" value="Поставщик" style="swimlane;fontStyle=0;childLayout=stackLayout;horizontal=1;startSize=26;fillColor=#fff2cc;horizontalStack=0;resizeParent=1;resizeParentMax=0;resizeLast=0;collapsible=1;marginBottom=0;whiteSpace=wrap;html=1;strokeColor=#d6b656;" parent="1" vertex="1">
          <mxGeometry x="30" y="166" width="140" height="104" as="geometry" />
        </mxCell>
        <mxCell id="WDXE12lgf6f9ZGKmz0Ur-13" value="&lt;u&gt;+ Номер поставщика&lt;br&gt;&lt;/u&gt;" style="text;strokeColor=none;fillColor=none;align=left;verticalAlign=top;spacingLeft=4;spacingRight=4;overflow=hidden;rotatable=0;points=[[0,0.5],[1,0.5]];portConstraint=eastwest;whiteSpace=wrap;html=1;" vertex="1" parent="vixc3VLxinaMPa4H9xeK-74">
          <mxGeometry y="26" width="140" height="26" as="geometry" />
        </mxCell>
        <mxCell id="vixc3VLxinaMPa4H9xeK-75" value="+ Тип корма" style="text;strokeColor=none;fillColor=none;align=left;verticalAlign=top;spacingLeft=4;spacingRight=4;overflow=hidden;rotatable=0;points=[[0,0.5],[1,0.5]];portConstraint=eastwest;whiteSpace=wrap;html=1;" parent="vixc3VLxinaMPa4H9xeK-74" vertex="1">
          <mxGeometry y="52" width="140" height="26" as="geometry" />
        </mxCell>
        <mxCell id="vixc3VLxinaMPa4H9xeK-76" value="+ Цена за объём" style="text;strokeColor=none;fillColor=none;align=left;verticalAlign=top;spacingLeft=4;spacingRight=4;overflow=hidden;rotatable=0;points=[[0,0.5],[1,0.5]];portConstraint=eastwest;whiteSpace=wrap;html=1;" parent="vixc3VLxinaMPa4H9xeK-74" vertex="1">
          <mxGeometry y="78" width="140" height="26" as="geometry" />
        </mxCell>
        <mxCell id="vixc3VLxinaMPa4H9xeK-78" value="Запасы корма" style="swimlane;fontStyle=0;childLayout=stackLayout;horizontal=1;startSize=26;fillColor=#fff2cc;horizontalStack=0;resizeParent=1;resizeParentMax=0;resizeLast=0;collapsible=1;marginBottom=0;whiteSpace=wrap;html=1;strokeColor=#d6b656;" parent="1" vertex="1">
          <mxGeometry x="30" y="40" width="140" height="104" as="geometry" />
        </mxCell>
        <mxCell id="vixc3VLxinaMPa4H9xeK-79" value="&lt;u&gt;+ Тип корма&lt;/u&gt;" style="text;strokeColor=none;fillColor=none;align=left;verticalAlign=top;spacingLeft=4;spacingRight=4;overflow=hidden;rotatable=0;points=[[0,0.5],[1,0.5]];portConstraint=eastwest;whiteSpace=wrap;html=1;" parent="vixc3VLxinaMPa4H9xeK-78" vertex="1">
          <mxGeometry y="26" width="140" height="26" as="geometry" />
        </mxCell>
        <mxCell id="WDXE12lgf6f9ZGKmz0Ur-12" value="+ Доступный объем" style="text;strokeColor=none;fillColor=none;align=left;verticalAlign=top;spacingLeft=4;spacingRight=4;overflow=hidden;rotatable=0;points=[[0,0.5],[1,0.5]];portConstraint=eastwest;whiteSpace=wrap;html=1;" vertex="1" parent="vixc3VLxinaMPa4H9xeK-78">
          <mxGeometry y="52" width="140" height="26" as="geometry" />
        </mxCell>
        <mxCell id="vixc3VLxinaMPa4H9xeK-80" value="+ Номер поставщика" style="text;strokeColor=none;fillColor=none;align=left;verticalAlign=top;spacingLeft=4;spacingRight=4;overflow=hidden;rotatable=0;points=[[0,0.5],[1,0.5]];portConstraint=eastwest;whiteSpace=wrap;html=1;" parent="vixc3VLxinaMPa4H9xeK-78" vertex="1">
          <mxGeometry y="78" width="140" height="26" as="geometry" />
        </mxCell>
        <mxCell id="vixc3VLxinaMPa4H9xeK-84" value="Ветеринар" style="swimlane;fontStyle=0;childLayout=stackLayout;horizontal=1;startSize=26;fillColor=#f8cecc;horizontalStack=0;resizeParent=1;resizeParentMax=0;resizeLast=0;collapsible=1;marginBottom=0;whiteSpace=wrap;html=1;dashed=1;strokeColor=#b85450;" parent="1" vertex="1">
          <mxGeometry x="1100" y="190" width="140" height="90" as="geometry" />
        </mxCell>
        <mxCell id="vixc3VLxinaMPa4H9xeK-85" value="&lt;u&gt;+ Номер сотрудника&lt;/u&gt;" style="text;strokeColor=none;fillColor=none;align=left;verticalAlign=top;spacingLeft=4;spacingRight=4;overflow=hidden;rotatable=0;points=[[0,0.5],[1,0.5]];portConstraint=eastwest;whiteSpace=wrap;html=1;" parent="vixc3VLxinaMPa4H9xeK-84" vertex="1">
          <mxGeometry y="26" width="140" height="26" as="geometry" />
        </mxCell>
        <mxCell id="vixc3VLxinaMPa4H9xeK-86" value="+ Проф направленность" style="text;strokeColor=none;fillColor=none;align=left;verticalAlign=top;spacingLeft=4;spacingRight=4;overflow=hidden;rotatable=0;points=[[0,0.5],[1,0.5]];portConstraint=eastwest;whiteSpace=wrap;html=1;" parent="vixc3VLxinaMPa4H9xeK-84" vertex="1">
          <mxGeometry y="52" width="140" height="38" as="geometry" />
        </mxCell>
        <mxCell id="vixc3VLxinaMPa4H9xeK-91" value="" style="edgeStyle=entityRelationEdgeStyle;fontSize=12;html=1;endArrow=ERmandOne;startArrow=ERmandOne;rounded=0;" parent="1" source="vixc3VLxinaMPa4H9xeK-84" target="vixc3VLxinaMPa4H9xeK-70" edge="1">
          <mxGeometry width="100" height="100" relative="1" as="geometry">
            <mxPoint x="840" y="280" as="sourcePoint" />
            <mxPoint x="940" y="180" as="targetPoint" />
          </mxGeometry>
        </mxCell>
        <mxCell id="vixc3VLxinaMPa4H9xeK-93" value="Уборщик" style="swimlane;fontStyle=0;childLayout=stackLayout;horizontal=1;startSize=26;fillColor=#f8cecc;horizontalStack=0;resizeParent=1;resizeParentMax=0;resizeLast=0;collapsible=1;marginBottom=0;whiteSpace=wrap;html=1;dashed=1;strokeColor=#b85450;" parent="1" vertex="1">
          <mxGeometry x="980" y="56" width="140" height="52" as="geometry" />
        </mxCell>
        <mxCell id="vixc3VLxinaMPa4H9xeK-94" value="&lt;u&gt;+ Номер сотрудника&lt;/u&gt;" style="text;strokeColor=none;fillColor=none;align=left;verticalAlign=top;spacingLeft=4;spacingRight=4;overflow=hidden;rotatable=0;points=[[0,0.5],[1,0.5]];portConstraint=eastwest;whiteSpace=wrap;html=1;" parent="vixc3VLxinaMPa4H9xeK-93" vertex="1">
          <mxGeometry y="26" width="140" height="26" as="geometry" />
        </mxCell>
        <mxCell id="vixc3VLxinaMPa4H9xeK-97" value="Дрессировщик" style="swimlane;fontStyle=0;childLayout=stackLayout;horizontal=1;startSize=26;fillColor=#f8cecc;horizontalStack=0;resizeParent=1;resizeParentMax=0;resizeLast=0;collapsible=1;marginBottom=0;whiteSpace=wrap;html=1;dashed=1;strokeColor=#b85450;" parent="1" vertex="1">
          <mxGeometry x="1150" y="385" width="140" height="90" as="geometry" />
        </mxCell>
        <mxCell id="vixc3VLxinaMPa4H9xeK-98" value="&lt;u&gt;+ Номер сотрудника&lt;/u&gt;" style="text;strokeColor=none;fillColor=none;align=left;verticalAlign=top;spacingLeft=4;spacingRight=4;overflow=hidden;rotatable=0;points=[[0,0.5],[1,0.5]];portConstraint=eastwest;whiteSpace=wrap;html=1;" parent="vixc3VLxinaMPa4H9xeK-97" vertex="1">
          <mxGeometry y="26" width="140" height="26" as="geometry" />
        </mxCell>
        <mxCell id="vixc3VLxinaMPa4H9xeK-99" value="+ Проф направленность" style="text;strokeColor=none;fillColor=none;align=left;verticalAlign=top;spacingLeft=4;spacingRight=4;overflow=hidden;rotatable=0;points=[[0,0.5],[1,0.5]];portConstraint=eastwest;whiteSpace=wrap;html=1;" parent="vixc3VLxinaMPa4H9xeK-97" vertex="1">
          <mxGeometry y="52" width="140" height="38" as="geometry" />
        </mxCell>
        <mxCell id="vixc3VLxinaMPa4H9xeK-101" value="Строитель-ремонтник" style="swimlane;fontStyle=0;childLayout=stackLayout;horizontal=1;startSize=26;fillColor=#f8cecc;horizontalStack=0;resizeParent=1;resizeParentMax=0;resizeLast=0;collapsible=1;marginBottom=0;whiteSpace=wrap;html=1;dashed=1;strokeColor=#b85450;" parent="1" vertex="1">
          <mxGeometry x="1370" y="40" width="140" height="90" as="geometry" />
        </mxCell>
        <mxCell id="vixc3VLxinaMPa4H9xeK-102" value="&lt;u&gt;+ Номер сотрудника&lt;/u&gt;" style="text;strokeColor=none;fillColor=none;align=left;verticalAlign=top;spacingLeft=4;spacingRight=4;overflow=hidden;rotatable=0;points=[[0,0.5],[1,0.5]];portConstraint=eastwest;whiteSpace=wrap;html=1;" parent="vixc3VLxinaMPa4H9xeK-101" vertex="1">
          <mxGeometry y="26" width="140" height="26" as="geometry" />
        </mxCell>
        <mxCell id="vixc3VLxinaMPa4H9xeK-103" value="+ Проф направленность" style="text;strokeColor=none;fillColor=none;align=left;verticalAlign=top;spacingLeft=4;spacingRight=4;overflow=hidden;rotatable=0;points=[[0,0.5],[1,0.5]];portConstraint=eastwest;whiteSpace=wrap;html=1;" parent="vixc3VLxinaMPa4H9xeK-101" vertex="1">
          <mxGeometry y="52" width="140" height="38" as="geometry" />
        </mxCell>
        <mxCell id="vixc3VLxinaMPa4H9xeK-105" value="" style="edgeStyle=entityRelationEdgeStyle;fontSize=12;html=1;endArrow=ERmandOne;startArrow=ERmandOne;rounded=0;entryX=0.01;entryY=0.063;entryDx=0;entryDy=0;entryPerimeter=0;" parent="1" source="vixc3VLxinaMPa4H9xeK-93" target="vixc3VLxinaMPa4H9xeK-70" edge="1">
          <mxGeometry width="100" height="100" relative="1" as="geometry">
            <mxPoint x="970" y="280" as="sourcePoint" />
            <mxPoint x="1070" y="180" as="targetPoint" />
          </mxGeometry>
        </mxCell>
        <mxCell id="vixc3VLxinaMPa4H9xeK-106" value="Работник администрации" style="swimlane;fontStyle=0;childLayout=stackLayout;horizontal=1;startSize=26;fillColor=#f8cecc;horizontalStack=0;resizeParent=1;resizeParentMax=0;resizeLast=0;collapsible=1;marginBottom=0;whiteSpace=wrap;html=1;dashed=1;strokeColor=#b85450;" parent="1" vertex="1">
          <mxGeometry x="1370" y="163" width="140" height="78" as="geometry" />
        </mxCell>
        <mxCell id="vixc3VLxinaMPa4H9xeK-107" value="&lt;u&gt;+ Номер сотрудника&lt;/u&gt;" style="text;strokeColor=none;fillColor=none;align=left;verticalAlign=top;spacingLeft=4;spacingRight=4;overflow=hidden;rotatable=0;points=[[0,0.5],[1,0.5]];portConstraint=eastwest;whiteSpace=wrap;html=1;" parent="vixc3VLxinaMPa4H9xeK-106" vertex="1">
          <mxGeometry y="26" width="140" height="26" as="geometry" />
        </mxCell>
        <mxCell id="vixc3VLxinaMPa4H9xeK-108" value="+ Должность" style="text;strokeColor=none;fillColor=none;align=left;verticalAlign=top;spacingLeft=4;spacingRight=4;overflow=hidden;rotatable=0;points=[[0,0.5],[1,0.5]];portConstraint=eastwest;whiteSpace=wrap;html=1;" parent="vixc3VLxinaMPa4H9xeK-106" vertex="1">
          <mxGeometry y="52" width="140" height="26" as="geometry" />
        </mxCell>
        <mxCell id="vixc3VLxinaMPa4H9xeK-116" value="" style="edgeStyle=entityRelationEdgeStyle;fontSize=12;html=1;endArrow=ERmandOne;startArrow=ERmandOne;rounded=0;" parent="1" source="vixc3VLxinaMPa4H9xeK-98" target="vixc3VLxinaMPa4H9xeK-115" edge="1">
          <mxGeometry width="100" height="100" relative="1" as="geometry">
            <mxPoint x="1060" y="238" as="sourcePoint" />
            <mxPoint x="1170" y="102" as="targetPoint" />
          </mxGeometry>
        </mxCell>
        <mxCell id="vixc3VLxinaMPa4H9xeK-118" value="" style="edgeStyle=entityRelationEdgeStyle;fontSize=12;html=1;endArrow=ERmandOne;startArrow=ERmandOne;rounded=0;entryX=1.019;entryY=0.153;entryDx=0;entryDy=0;entryPerimeter=0;" parent="1" source="vixc3VLxinaMPa4H9xeK-101" target="vixc3VLxinaMPa4H9xeK-70" edge="1">
          <mxGeometry width="100" height="100" relative="1" as="geometry">
            <mxPoint x="1060" y="89" as="sourcePoint" />
            <mxPoint x="1171" y="57" as="targetPoint" />
          </mxGeometry>
        </mxCell>
        <mxCell id="vixc3VLxinaMPa4H9xeK-119" value="" style="edgeStyle=entityRelationEdgeStyle;fontSize=12;html=1;endArrow=ERmandOne;startArrow=ERmandOne;rounded=0;" parent="1" source="vixc3VLxinaMPa4H9xeK-106" target="vixc3VLxinaMPa4H9xeK-72" edge="1">
          <mxGeometry width="100" height="100" relative="1" as="geometry">
            <mxPoint x="1380" y="95" as="sourcePoint" />
            <mxPoint x="1313" y="66" as="targetPoint" />
          </mxGeometry>
        </mxCell>
        <mxCell id="WDXE12lgf6f9ZGKmz0Ur-5" value="Пара совместимых видов" style="swimlane;fontStyle=0;childLayout=stackLayout;horizontal=1;startSize=26;horizontalStack=0;resizeParent=1;resizeParentMax=0;resizeLast=0;collapsible=1;marginBottom=0;align=center;fontSize=14;fillColor=#f5f5f5;strokeColor=#666666;fontColor=#333333;" vertex="1" parent="1">
          <mxGeometry x="160" y="460" width="150" height="90" as="geometry" />
        </mxCell>
        <mxCell id="WDXE12lgf6f9ZGKmz0Ur-6" value="+ Номер вида" style="text;strokeColor=none;fillColor=none;spacingLeft=4;spacingRight=4;overflow=hidden;rotatable=0;points=[[0,0.5],[1,0.5]];portConstraint=eastwest;fontSize=12;whiteSpace=wrap;html=1;" vertex="1" parent="WDXE12lgf6f9ZGKmz0Ur-5">
          <mxGeometry y="26" width="150" height="30" as="geometry" />
        </mxCell>
        <mxCell id="WDXE12lgf6f9ZGKmz0Ur-7" value="+ Номер совместимого вида" style="text;strokeColor=none;fillColor=none;spacingLeft=4;spacingRight=4;overflow=hidden;rotatable=0;points=[[0,0.5],[1,0.5]];portConstraint=eastwest;fontSize=12;whiteSpace=wrap;html=1;" vertex="1" parent="WDXE12lgf6f9ZGKmz0Ur-5">
          <mxGeometry y="56" width="150" height="34" as="geometry" />
        </mxCell>
        <mxCell id="WDXE12lgf6f9ZGKmz0Ur-11" value="" style="edgeStyle=entityRelationEdgeStyle;fontSize=12;html=1;endArrow=ERmany;startArrow=ERmany;rounded=0;" edge="1" parent="1" source="vixc3VLxinaMPa4H9xeK-78" target="vixc3VLxinaMPa4H9xeK-74">
          <mxGeometry width="100" height="100" relative="1" as="geometry">
            <mxPoint x="-30" y="120" as="sourcePoint" />
            <mxPoint x="70" y="20" as="targetPoint" />
          </mxGeometry>
        </mxCell>
        <mxCell id="WDXE12lgf6f9ZGKmz0Ur-27" value="Пара ветеринар/веткарта" style="swimlane;fontStyle=0;childLayout=stackLayout;horizontal=1;startSize=26;fillColor=#f5f5f5;horizontalStack=0;resizeParent=1;resizeParentMax=0;resizeLast=0;collapsible=1;marginBottom=0;whiteSpace=wrap;html=1;fontColor=#333333;strokeColor=#666666;" vertex="1" parent="1">
          <mxGeometry x="870" y="196" width="140" height="78" as="geometry" />
        </mxCell>
        <mxCell id="WDXE12lgf6f9ZGKmz0Ur-28" value="+ Номер ветеринара" style="text;strokeColor=none;fillColor=none;align=left;verticalAlign=top;spacingLeft=4;spacingRight=4;overflow=hidden;rotatable=0;points=[[0,0.5],[1,0.5]];portConstraint=eastwest;whiteSpace=wrap;html=1;" vertex="1" parent="WDXE12lgf6f9ZGKmz0Ur-27">
          <mxGeometry y="26" width="140" height="26" as="geometry" />
        </mxCell>
        <mxCell id="WDXE12lgf6f9ZGKmz0Ur-29" value="+ Номер веткарты" style="text;strokeColor=none;fillColor=none;align=left;verticalAlign=top;spacingLeft=4;spacingRight=4;overflow=hidden;rotatable=0;points=[[0,0.5],[1,0.5]];portConstraint=eastwest;whiteSpace=wrap;html=1;" vertex="1" parent="WDXE12lgf6f9ZGKmz0Ur-27">
          <mxGeometry y="52" width="140" height="26" as="geometry" />
        </mxCell>
        <mxCell id="WDXE12lgf6f9ZGKmz0Ur-31" value="Пара уборщик/вольер" style="swimlane;fontStyle=0;childLayout=stackLayout;horizontal=1;startSize=26;fillColor=#f5f5f5;horizontalStack=0;resizeParent=1;resizeParentMax=0;resizeLast=0;collapsible=1;marginBottom=0;whiteSpace=wrap;html=1;strokeColor=#666666;fontColor=#333333;" vertex="1" parent="1">
          <mxGeometry x="800" y="30" width="140" height="78" as="geometry" />
        </mxCell>
        <mxCell id="WDXE12lgf6f9ZGKmz0Ur-32" value="+ Номер уборщика" style="text;strokeColor=none;fillColor=none;align=left;verticalAlign=top;spacingLeft=4;spacingRight=4;overflow=hidden;rotatable=0;points=[[0,0.5],[1,0.5]];portConstraint=eastwest;whiteSpace=wrap;html=1;" vertex="1" parent="WDXE12lgf6f9ZGKmz0Ur-31">
          <mxGeometry y="26" width="140" height="26" as="geometry" />
        </mxCell>
        <mxCell id="WDXE12lgf6f9ZGKmz0Ur-33" value="+ Номер вольера" style="text;strokeColor=none;fillColor=none;align=left;verticalAlign=top;spacingLeft=4;spacingRight=4;overflow=hidden;rotatable=0;points=[[0,0.5],[1,0.5]];portConstraint=eastwest;whiteSpace=wrap;html=1;" vertex="1" parent="WDXE12lgf6f9ZGKmz0Ur-31">
          <mxGeometry y="52" width="140" height="26" as="geometry" />
        </mxCell>
        <mxCell id="WDXE12lgf6f9ZGKmz0Ur-35" value="Пара дрессировщик/животное" style="swimlane;fontStyle=0;childLayout=stackLayout;horizontal=1;startSize=26;fillColor=#f5f5f5;horizontalStack=0;resizeParent=1;resizeParentMax=0;resizeLast=0;collapsible=1;marginBottom=0;whiteSpace=wrap;html=1;fontColor=#333333;strokeColor=#666666;" vertex="1" parent="1">
          <mxGeometry x="910" y="385" width="140" height="86" as="geometry" />
        </mxCell>
        <mxCell id="WDXE12lgf6f9ZGKmz0Ur-36" value="+ Номер дрессировщика" style="text;strokeColor=none;fillColor=none;align=left;verticalAlign=top;spacingLeft=4;spacingRight=4;overflow=hidden;rotatable=0;points=[[0,0.5],[1,0.5]];portConstraint=eastwest;whiteSpace=wrap;html=1;" vertex="1" parent="WDXE12lgf6f9ZGKmz0Ur-35">
          <mxGeometry y="26" width="140" height="34" as="geometry" />
        </mxCell>
        <mxCell id="WDXE12lgf6f9ZGKmz0Ur-37" value="+ Номер животного" style="text;strokeColor=none;fillColor=none;align=left;verticalAlign=top;spacingLeft=4;spacingRight=4;overflow=hidden;rotatable=0;points=[[0,0.5],[1,0.5]];portConstraint=eastwest;whiteSpace=wrap;html=1;" vertex="1" parent="WDXE12lgf6f9ZGKmz0Ur-35">
          <mxGeometry y="60" width="140" height="26" as="geometry" />
        </mxCell>
        <mxCell id="WDXE12lgf6f9ZGKmz0Ur-39" value="" style="endArrow=none;html=1;rounded=0;" edge="1" parent="1" source="vixc3VLxinaMPa4H9xeK-36" target="WDXE12lgf6f9ZGKmz0Ur-5">
          <mxGeometry relative="1" as="geometry">
            <mxPoint x="620" y="320" as="sourcePoint" />
            <mxPoint x="440" y="410" as="targetPoint" />
          </mxGeometry>
        </mxCell>
        <mxCell id="WDXE12lgf6f9ZGKmz0Ur-40" value="" style="endArrow=none;html=1;rounded=0;" edge="1" parent="1" source="WDXE12lgf6f9ZGKmz0Ur-31" target="vixc3VLxinaMPa4H9xeK-93">
          <mxGeometry relative="1" as="geometry">
            <mxPoint x="820" y="160" as="sourcePoint" />
            <mxPoint x="980" y="160" as="targetPoint" />
          </mxGeometry>
        </mxCell>
        <mxCell id="WDXE12lgf6f9ZGKmz0Ur-41" value="" style="endArrow=none;html=1;rounded=0;" edge="1" parent="1" source="WDXE12lgf6f9ZGKmz0Ur-31" target="vixc3VLxinaMPa4H9xeK-8">
          <mxGeometry relative="1" as="geometry">
            <mxPoint x="820" y="160" as="sourcePoint" />
            <mxPoint x="980" y="160" as="targetPoint" />
          </mxGeometry>
        </mxCell>
        <mxCell id="WDXE12lgf6f9ZGKmz0Ur-42" value="" style="endArrow=none;html=1;rounded=0;" edge="1" parent="1" source="vixc3VLxinaMPa4H9xeK-17" target="WDXE12lgf6f9ZGKmz0Ur-27">
          <mxGeometry relative="1" as="geometry">
            <mxPoint x="870" y="260" as="sourcePoint" />
            <mxPoint x="1030" y="260" as="targetPoint" />
            <Array as="points" />
          </mxGeometry>
        </mxCell>
        <mxCell id="WDXE12lgf6f9ZGKmz0Ur-43" value="" style="endArrow=none;html=1;rounded=0;" edge="1" parent="1" source="WDXE12lgf6f9ZGKmz0Ur-27" target="vixc3VLxinaMPa4H9xeK-84">
          <mxGeometry relative="1" as="geometry">
            <mxPoint x="870" y="260" as="sourcePoint" />
            <mxPoint x="1030" y="260" as="targetPoint" />
          </mxGeometry>
        </mxCell>
        <mxCell id="WDXE12lgf6f9ZGKmz0Ur-44" value="" style="endArrow=none;html=1;rounded=0;" edge="1" parent="1" source="WDXE12lgf6f9ZGKmz0Ur-35" target="vixc3VLxinaMPa4H9xeK-97">
          <mxGeometry relative="1" as="geometry">
            <mxPoint x="1020" y="329.65999999999997" as="sourcePoint" />
            <mxPoint x="1180" y="329.65999999999997" as="targetPoint" />
          </mxGeometry>
        </mxCell>
        <mxCell id="WDXE12lgf6f9ZGKmz0Ur-45" value="" style="endArrow=none;html=1;rounded=0;" edge="1" parent="1" source="vixc3VLxinaMPa4H9xeK-1" target="WDXE12lgf6f9ZGKmz0Ur-35">
          <mxGeometry relative="1" as="geometry">
            <mxPoint x="530" y="320" as="sourcePoint" />
            <mxPoint x="990" y="340" as="targetPoint" />
            <Array as="points">
              <mxPoint x="620" y="500" />
              <mxPoint x="780" y="500" />
            </Array>
          </mxGeometry>
        </mxCell>
        <mxCell id="WDXE12lgf6f9ZGKmz0Ur-62" value="Родители" style="swimlane;fontStyle=0;childLayout=stackLayout;horizontal=1;startSize=26;fillColor=#d5e8d4;horizontalStack=0;resizeParent=1;resizeParentMax=0;resizeLast=0;collapsible=1;marginBottom=0;whiteSpace=wrap;html=1;strokeColor=#82b366;" vertex="1" parent="1">
          <mxGeometry x="390" y="340" width="140" height="104" as="geometry" />
        </mxCell>
        <mxCell id="WDXE12lgf6f9ZGKmz0Ur-63" value="&lt;u&gt;+ Номер животного&lt;/u&gt;" style="text;strokeColor=none;fillColor=none;align=left;verticalAlign=top;spacingLeft=4;spacingRight=4;overflow=hidden;rotatable=0;points=[[0,0.5],[1,0.5]];portConstraint=eastwest;whiteSpace=wrap;html=1;" vertex="1" parent="WDXE12lgf6f9ZGKmz0Ur-62">
          <mxGeometry y="26" width="140" height="26" as="geometry" />
        </mxCell>
        <mxCell id="WDXE12lgf6f9ZGKmz0Ur-64" value="&lt;div&gt;+ Номер отца&lt;/div&gt;&lt;div&gt;&lt;br&gt;&lt;/div&gt;" style="text;strokeColor=none;fillColor=none;align=left;verticalAlign=top;spacingLeft=4;spacingRight=4;overflow=hidden;rotatable=0;points=[[0,0.5],[1,0.5]];portConstraint=eastwest;whiteSpace=wrap;html=1;" vertex="1" parent="WDXE12lgf6f9ZGKmz0Ur-62">
          <mxGeometry y="52" width="140" height="26" as="geometry" />
        </mxCell>
        <mxCell id="WDXE12lgf6f9ZGKmz0Ur-79" value="&lt;div&gt;+ Номер матери&lt;br&gt;&lt;/div&gt;&lt;div&gt;&lt;br&gt;&lt;/div&gt;" style="text;strokeColor=none;fillColor=none;align=left;verticalAlign=top;spacingLeft=4;spacingRight=4;overflow=hidden;rotatable=0;points=[[0,0.5],[1,0.5]];portConstraint=eastwest;whiteSpace=wrap;html=1;" vertex="1" parent="WDXE12lgf6f9ZGKmz0Ur-62">
          <mxGeometry y="78" width="140" height="26" as="geometry" />
        </mxCell>
        <mxCell id="WDXE12lgf6f9ZGKmz0Ur-66" value="История болезни" style="swimlane;fontStyle=0;childLayout=stackLayout;horizontal=1;startSize=26;fillColor=#fff2cc;horizontalStack=0;resizeParent=1;resizeParentMax=0;resizeLast=0;collapsible=1;marginBottom=0;whiteSpace=wrap;html=1;dashed=1;strokeColor=#d6b656;" vertex="1" parent="1">
          <mxGeometry x="680" y="530" width="140" height="146" as="geometry" />
        </mxCell>
        <mxCell id="WDXE12lgf6f9ZGKmz0Ur-67" value="+ Номер истории болезни" style="text;strokeColor=none;fillColor=none;align=left;verticalAlign=top;spacingLeft=4;spacingRight=4;overflow=hidden;rotatable=0;points=[[0,0.5],[1,0.5]];portConstraint=eastwest;whiteSpace=wrap;html=1;" vertex="1" parent="WDXE12lgf6f9ZGKmz0Ur-66">
          <mxGeometry y="26" width="140" height="34" as="geometry" />
        </mxCell>
        <mxCell id="WDXE12lgf6f9ZGKmz0Ur-84" value="+ Болезнь" style="text;strokeColor=none;fillColor=none;align=left;verticalAlign=top;spacingLeft=4;spacingRight=4;overflow=hidden;rotatable=0;points=[[0,0.5],[1,0.5]];portConstraint=eastwest;whiteSpace=wrap;html=1;" vertex="1" parent="WDXE12lgf6f9ZGKmz0Ur-66">
          <mxGeometry y="60" width="140" height="26" as="geometry" />
        </mxCell>
        <mxCell id="WDXE12lgf6f9ZGKmz0Ur-85" value="+ Дата" style="text;strokeColor=none;fillColor=none;align=left;verticalAlign=top;spacingLeft=4;spacingRight=4;overflow=hidden;rotatable=0;points=[[0,0.5],[1,0.5]];portConstraint=eastwest;whiteSpace=wrap;html=1;" vertex="1" parent="WDXE12lgf6f9ZGKmz0Ur-66">
          <mxGeometry y="86" width="140" height="26" as="geometry" />
        </mxCell>
        <mxCell id="WDXE12lgf6f9ZGKmz0Ur-68" value="+ Назначенное лечение" style="text;strokeColor=none;fillColor=none;align=left;verticalAlign=top;spacingLeft=4;spacingRight=4;overflow=hidden;rotatable=0;points=[[0,0.5],[1,0.5]];portConstraint=eastwest;whiteSpace=wrap;html=1;" vertex="1" parent="WDXE12lgf6f9ZGKmz0Ur-66">
          <mxGeometry y="112" width="140" height="34" as="geometry" />
        </mxCell>
        <mxCell id="WDXE12lgf6f9ZGKmz0Ur-70" value="Прививочный сертификат" style="swimlane;fontStyle=0;childLayout=stackLayout;horizontal=1;startSize=26;fillColor=#fff2cc;horizontalStack=0;resizeParent=1;resizeParentMax=0;resizeLast=0;collapsible=1;marginBottom=0;whiteSpace=wrap;html=1;dashed=1;strokeColor=#d6b656;" vertex="1" parent="1">
          <mxGeometry x="490" y="530" width="140" height="112" as="geometry" />
        </mxCell>
        <mxCell id="WDXE12lgf6f9ZGKmz0Ur-71" value="+ Номер прив сертификата" style="text;strokeColor=none;fillColor=none;align=left;verticalAlign=top;spacingLeft=4;spacingRight=4;overflow=hidden;rotatable=0;points=[[0,0.5],[1,0.5]];portConstraint=eastwest;whiteSpace=wrap;html=1;" vertex="1" parent="WDXE12lgf6f9ZGKmz0Ur-70">
          <mxGeometry y="26" width="140" height="34" as="geometry" />
        </mxCell>
        <mxCell id="WDXE12lgf6f9ZGKmz0Ur-86" value="+ Прививка" style="text;strokeColor=none;fillColor=none;align=left;verticalAlign=top;spacingLeft=4;spacingRight=4;overflow=hidden;rotatable=0;points=[[0,0.5],[1,0.5]];portConstraint=eastwest;whiteSpace=wrap;html=1;" vertex="1" parent="WDXE12lgf6f9ZGKmz0Ur-70">
          <mxGeometry y="60" width="140" height="26" as="geometry" />
        </mxCell>
        <mxCell id="WDXE12lgf6f9ZGKmz0Ur-72" value="+ Дата" style="text;strokeColor=none;fillColor=none;align=left;verticalAlign=top;spacingLeft=4;spacingRight=4;overflow=hidden;rotatable=0;points=[[0,0.5],[1,0.5]];portConstraint=eastwest;whiteSpace=wrap;html=1;" vertex="1" parent="WDXE12lgf6f9ZGKmz0Ur-70">
          <mxGeometry y="86" width="140" height="26" as="geometry" />
        </mxCell>
        <mxCell id="WDXE12lgf6f9ZGKmz0Ur-80" value="" style="edgeStyle=entityRelationEdgeStyle;fontSize=12;html=1;endArrow=ERoneToMany;rounded=0;" edge="1" parent="1" source="WDXE12lgf6f9ZGKmz0Ur-62" target="vixc3VLxinaMPa4H9xeK-62">
          <mxGeometry width="100" height="100" relative="1" as="geometry">
            <mxPoint x="600" y="290" as="sourcePoint" />
            <mxPoint x="700" y="190" as="targetPoint" />
          </mxGeometry>
        </mxCell>
        <mxCell id="WDXE12lgf6f9ZGKmz0Ur-81" value="" style="edgeStyle=entityRelationEdgeStyle;fontSize=12;html=1;endArrow=ERmandOne;startArrow=ERmandOne;rounded=0;" edge="1" parent="1" source="WDXE12lgf6f9ZGKmz0Ur-66" target="vixc3VLxinaMPa4H9xeK-56">
          <mxGeometry width="100" height="100" relative="1" as="geometry">
            <mxPoint x="640" y="480" as="sourcePoint" />
            <mxPoint x="740" y="380" as="targetPoint" />
          </mxGeometry>
        </mxCell>
        <mxCell id="WDXE12lgf6f9ZGKmz0Ur-83" value="" style="edgeStyle=entityRelationEdgeStyle;fontSize=12;html=1;endArrow=ERmandOne;startArrow=ERmandOne;rounded=0;entryX=0.012;entryY=0.345;entryDx=0;entryDy=0;entryPerimeter=0;" edge="1" parent="1" source="WDXE12lgf6f9ZGKmz0Ur-70" target="vixc3VLxinaMPa4H9xeK-56">
          <mxGeometry width="100" height="100" relative="1" as="geometry">
            <mxPoint x="640" y="480" as="sourcePoint" />
            <mxPoint x="740" y="380" as="targetPoint" />
          </mxGeometry>
        </mxCell>
      </root>
    </mxGraphModel>
  </diagram>
</mxfile>
